<svg xmlns="http://www.w3.org/2000/svg" width="500" height="450" viewBox="0 0 500 450">
<rect x="0" y="0" width="500" height="450" fill="#ffffff"/>
<defs><marker id="arrowhead" markerWidth="10" markerHeight="7" refX="10" refY="3.5" orient="auto"><polygon points="0 0, 10 3.5, 0 7" fill="#868e96"/></marker></defs>
<rect x="40" y="40" width="420" height="90" fill="none" stroke="#a5d8ff" stroke-width="2" stroke-dasharray="8 4"/>
<text x="48" y="58" font-size="16" font-family="sans-serif" fill="#1971c2">用户层</text>
<rect x="40" y="180" width="420" height="90" fill="none" stroke="#a5d8ff" stroke-width="2" stroke-dasharray="8 4"/>
<text x="48" y="198" font-size="16" font-family="sans-serif" fill="#1971c2">应用层</text>
<rect x="40" y="320" width="420" height="90" fill="none" stroke="#a5d8ff" stroke-width="2" stroke-dasharray="8 4"/>
<text x="48" y="338" font-size="16" font-family="sans-serif" fill="#1971c2">数据层</text>
<rect x="80" y="60" width="140" height="50" fill="#a5d8ff" stroke="#1e1e1e" stroke-width="2" rx="8"/>
<text x="150" y="81.15384615384616" text-anchor="middle" dominant-baseline="central" font-size="16" font-family="sans-serif" fill="#1e1e1e">Web</text>
<rect x="260" y="60" width="140" height="50" fill="#a5d8ff" stroke="#1e1e1e" stroke-width="2" rx="8"/>
<text x="330" y="81.15384615384616" text-anchor="middle" dominant-baseline="central" font-size="16" font-family="sans-serif" fill="#1e1e1e">API</text>
<rect x="160" y="200" width="160" height="50" fill="#d0bfff" stroke="#1e1e1e" stroke-width="2" rx="8"/>
<text x="240" y="221.15384615384616" text-anchor="middle" dominant-baseline="central" font-size="16" font-family="sans-serif" fill="#1e1e1e">服务</text>
<ellipse cx="240" cy="365" rx="70" ry="25" fill="#c3fae8" stroke="#1e1e1e" stroke-width="2"/>
<text x="240" y="361.15384615384613" text-anchor="middle" dominant-baseline="central" font-size="16" font-family="sans-serif" fill="#1e1e1e">数据库</text>
<path d="M240.0,130.0 L240.0,180.0" fill="none" stroke="#868e96" stroke-width="2" marker-end="url(#arrowhead)"/>
<path d="M240.0,270.0 L240.0,320.0" fill="none" stroke="#868e96" stroke-width="2" marker-end="url(#arrowhead)"/>
</svg>